<?xml version="1.0" standalone="no"?>
<!DOCTYPE svg PUBLIC "-//W3C//DTD SVG 20010904//EN"
 "http://www.w3.org/TR/2001/REC-SVG-20010904/DTD/svg10.dtd">
<svg version="1.0" xmlns="http://www.w3.org/2000/svg"
 width="200.000000pt" height="200.000000pt" viewBox="0 0 200.000000 200.000000"
 preserveAspectRatio="xMidYMid meet">
<metadata>
Created by potrace 1.13, written by Peter Selinger 2001-2015
</metadata>
<g transform="translate(0.000000,200.000000) scale(0.100000,-0.100000)"
fill="#000000" stroke="none">
<path d="M1010 1784 c-125 -27 -262 -117 -331 -219 -13 -19 -27 -35 -31 -35
-5 0 -8 52 -8 115 l0 115 -160 0 -160 0 0 -775 0 -775 170 0 170 0 0 483 c0
520 2 542 54 645 32 63 98 127 166 160 49 24 66 27 160 27 98 0 109 -2 159
-30 57 -31 89 -71 118 -145 16 -41 18 -97 21 -592 l3 -548 169 0 170 0 0 573
c0 621 -3 657 -56 765 -91 186 -363 291 -614 236z"/>
</g>
</svg>
